STARTFONT 2.1
COMMENT
COMMENT Converted from OpenType font "Oxanium-Bold.ttf" by "otf2bdf 3.0".
COMMENT
FONT -FreeType-Oxanium-Bold-R-Normal--19-190-72-72-P-89-ISO10646-1
SIZE 19 72 72
FONTBOUNDINGBOX 32 23 -9 -4
STARTPROPERTIES 19
FOUNDRY "FreeType"
FAMILY_NAME "Oxanium"
WEIGHT_NAME "Bold"
SLANT "R"
SETWIDTH_NAME "Normal"
ADD_STYLE_NAME ""
PIXEL_SIZE 19
POINT_SIZE 190
RESOLUTION_X 72
RESOLUTION_Y 72
SPACING "P"
AVERAGE_WIDTH 89
CHARSET_REGISTRY "ISO10646"
CHARSET_ENCODING "1"
FONT_ASCENT 15
FONT_DESCENT 3
COPYRIGHT "Copyright 2019 The Oxanium Project Authors (https://github.com/sevmeyer/oxanium)"
_OTF_FONTFILE "Oxanium-Bold.ttf"
_OTF_PSNAME "Oxanium-Bold"
ENDPROPERTIES
CHARS 357
STARTCHAR 0000
ENCODING 0
SWIDTH 0 0
DWIDTH 0 0
BBX 0 0 0 0
BITMAP
ENDCHAR
STARTCHAR 000D
ENCODING 13
SWIDTH 263 0
DWIDTH 5 0
BBX 0 0 0 0
BITMAP
ENDCHAR
STARTCHAR 0020
ENCODING 32
SWIDTH 263 0
DWIDTH 5 0
BBX 0 0 0 0
BITMAP
ENDCHAR
STARTCHAR 0021
ENCODING 33
SWIDTH 263 0
DWIDTH 5 0
BBX 3 13 1 0
BITMAP
E0
E0
E0
E0
E0
E0
E0
E0
E0
00
E0
E0
E0
ENDCHAR
STARTCHAR 0022
ENCODING 34
SWIDTH 473 0
DWIDTH 9 0
BBX 7 5 1 9
BITMAP
EE
EE
EE
EE
EE
ENDCHAR
STARTCHAR 0023
ENCODING 35
SWIDTH 684 0
DWIDTH 13 0
BBX 11 13 1 0
BITMAP
3380
3380
3380
FFE0
FFE0
3380
3380
3380
FFE0
FFE0
3380
3380
3380
ENDCHAR
STARTCHAR 0024
ENCODING 36
SWIDTH 578 0
DWIDTH 11 0
BBX 9 19 1 -3
BITMAP
1C00
1C00
1C00
7F00
FF80
E000
E000
E000
FE00
7F00
0F80
0380
0380
0380
FF80
7F00
1C00
1C00
1C00
ENDCHAR
STARTCHAR 0025
ENCODING 37
SWIDTH 894 0
DWIDTH 17 0
BBX 15 13 1 0
BITMAP
F860
F860
D8E0
D8C0
D9C0
D9BC
FBBE
FB76
0776
0676
0C76
1C3E
083C
ENDCHAR
STARTCHAR 0026
ENCODING 38
SWIDTH 684 0
DWIDTH 13 0
BBX 11 13 1 0
BITMAP
3F00
7F00
6000
6000
6000
7FE0
7FE0
E180
E180
E180
E180
FF80
7F80
ENDCHAR
STARTCHAR 0027
ENCODING 39
SWIDTH 263 0
DWIDTH 5 0
BBX 3 5 1 9
BITMAP
E0
E0
E0
E0
E0
ENDCHAR
STARTCHAR 0028
ENCODING 40
SWIDTH 368 0
DWIDTH 7 0
BBX 5 17 1 -3
BITMAP
10
38
30
70
70
60
E0
E0
E0
E0
E0
60
70
70
30
38
10
ENDCHAR
STARTCHAR 0029
ENCODING 41
SWIDTH 368 0
DWIDTH 7 0
BBX 5 17 0 -3
BITMAP
20
E0
70
30
38
38
18
18
18
18
18
38
38
30
70
E0
20
ENDCHAR
STARTCHAR 002A
ENCODING 42
SWIDTH 526 0
DWIDTH 10 0
BBX 8 8 1 5
BITMAP
18
18
FF
FF
3C
3C
6E
24
ENDCHAR
STARTCHAR 002B
ENCODING 43
SWIDTH 578 0
DWIDTH 11 0
BBX 9 8 1 3
BITMAP
1C00
1C00
1C00
FF80
FF80
1C00
1C00
1C00
ENDCHAR
STARTCHAR 002C
ENCODING 44
SWIDTH 263 0
DWIDTH 5 0
BBX 4 6 0 -3
BITMAP
70
70
70
60
60
E0
ENDCHAR
STARTCHAR 002D
ENCODING 45
SWIDTH 368 0
DWIDTH 7 0
BBX 5 2 1 5
BITMAP
F8
F8
ENDCHAR
STARTCHAR 002E
ENCODING 46
SWIDTH 263 0
DWIDTH 5 0
BBX 3 3 1 0
BITMAP
E0
E0
E0
ENDCHAR
STARTCHAR 002F
ENCODING 47
SWIDTH 421 0
DWIDTH 8 0
BBX 8 15 0 -1
BITMAP
02
07
06
0E
0E
0C
1C
18
18
38
30
70
70
60
E0
ENDCHAR
STARTCHAR 0030
ENCODING 48
SWIDTH 578 0
DWIDTH 11 0
BBX 9 13 1 0
BITMAP
7F00
FF80
E380
E380
E380
E380
E380
E380
E380
E380
E380
FF80
7F00
ENDCHAR
STARTCHAR 0031
ENCODING 49
SWIDTH 578 0
DWIDTH 11 0
BBX 8 13 2 0
BITMAP
78
F8
38
38
38
38
38
38
38
38
38
FF
FF
ENDCHAR
STARTCHAR 0032
ENCODING 50
SWIDTH 578 0
DWIDTH 11 0
BBX 9 13 1 0
BITMAP
7F00
FF80
0380
0380
0380
1F80
7F00
FC00
E000
E000
E000
FF80
FF80
ENDCHAR
STARTCHAR 0033
ENCODING 51
SWIDTH 578 0
DWIDTH 11 0
BBX 9 13 1 0
BITMAP
7F00
FF80
0380
0380
0380
3F80
3F00
0380
0380
0380
0380
FF80
7F00
ENDCHAR
STARTCHAR 0034
ENCODING 52
SWIDTH 578 0
DWIDTH 11 0
BBX 9 13 1 0
BITMAP
0E00
1C00
1C00
3800
3800
7380
7380
6380
E380
FF80
FF80
0380
0380
ENDCHAR
STARTCHAR 0035
ENCODING 53
SWIDTH 578 0
DWIDTH 11 0
BBX 9 13 1 0
BITMAP
FF00
FF00
E000
E000
E000
FF00
FF80
0380
0380
0380
0380
FF80
FF00
ENDCHAR
STARTCHAR 0036
ENCODING 54
SWIDTH 578 0
DWIDTH 11 0
BBX 9 13 1 0
BITMAP
3F00
7F00
E000
E000
E000
FF00
FF80
E380
E380
E380
E380
FF80
7F00
ENDCHAR
STARTCHAR 0037
ENCODING 55
SWIDTH 578 0
DWIDTH 11 0
BBX 9 13 1 0
BITMAP
FF80
FF80
0380
0380
0380
0700
0700
0E00
0E00
1C00
1C00
3800
7800
ENDCHAR
STARTCHAR 0038
ENCODING 56
SWIDTH 578 0
DWIDTH 11 0
BBX 9 13 1 0
BITMAP
7F00
FF80
E380
E380
E380
FF80
7F00
E380
E380
E380
E380
FF80
7F00
ENDCHAR
STARTCHAR 0039
ENCODING 57
SWIDTH 578 0
DWIDTH 11 0
BBX 9 13 1 0
BITMAP
7F00
FF80
E380
E380
E380
E380
FF80
7F80
0380
0380
0380
7F00
7E00
ENDCHAR
STARTCHAR 003A
ENCODING 58
SWIDTH 263 0
DWIDTH 5 0
BBX 3 10 1 0
BITMAP
E0
E0
E0
00
00
00
00
E0
E0
E0
ENDCHAR
STARTCHAR 003B
ENCODING 59
SWIDTH 263 0
DWIDTH 5 0
BBX 4 13 0 -3
BITMAP
70
70
70
00
00
00
00
70
70
70
60
60
E0
ENDCHAR
STARTCHAR 003C
ENCODING 60
SWIDTH 578 0
DWIDTH 11 0
BBX 9 9 1 2
BITMAP
0300
0F80
3E00
F800
E000
F800
3E00
0F80
0300
ENDCHAR
STARTCHAR 003D
ENCODING 61
SWIDTH 578 0
DWIDTH 11 0
BBX 9 6 1 3
BITMAP
FF80
FF80
0000
0000
FF80
FF80
ENDCHAR
STARTCHAR 003E
ENCODING 62
SWIDTH 578 0
DWIDTH 11 0
BBX 9 9 1 2
BITMAP
6000
F800
3E00
0F80
0380
0F80
3E00
F800
6000
ENDCHAR
STARTCHAR 003F
ENCODING 63
SWIDTH 526 0
DWIDTH 10 0
BBX 8 13 1 0
BITMAP
FE
FF
07
07
07
07
3F
3E
38
00
38
38
38
ENDCHAR
STARTCHAR 0040
ENCODING 64
SWIDTH 789 0
DWIDTH 15 0
BBX 12 16 2 -3
BITMAP
7FF0
FFF0
C070
C070
C7F0
CFF0
CC70
CC70
CC70
CC70
CFF0
C7F0
C000
C000
FFE0
7FE0
ENDCHAR
STARTCHAR 0041
ENCODING 65
SWIDTH 684 0
DWIDTH 13 0
BBX 12 13 0 0
BITMAP
0F80
0F80
1F80
1DC0
1DC0
19C0
38C0
38E0
3FE0
7FE0
7070
6070
E030
ENDCHAR
STARTCHAR 0042
ENCODING 66
SWIDTH 631 0
DWIDTH 12 0
BBX 9 13 2 0
BITMAP
FF00
FF80
C380
C380
C380
FF00
FF00
C380
C180
C180
C380
FF80
FF00
ENDCHAR
STARTCHAR 0043
ENCODING 67
SWIDTH 631 0
DWIDTH 12 0
BBX 10 13 1 0
BITMAP
3F80
7FC0
E000
E000
E000
E000
E000
E000
E000
E000
E000
7FC0
3F80
ENDCHAR
STARTCHAR 0044
ENCODING 68
SWIDTH 684 0
DWIDTH 13 0
BBX 10 13 2 0
BITMAP
FE00
FF80
C780
C1C0
C1C0
C1C0
C1C0
C1C0
C1C0
C1C0
C780
FF80
FE00
ENDCHAR
STARTCHAR 0045
ENCODING 69
SWIDTH 578 0
DWIDTH 11 0
BBX 9 13 2 0
BITMAP
FF80
FF80
C000
C000
C000
FF00
FF00
C000
C000
C000
C000
FF80
FF80
ENDCHAR
STARTCHAR 0046
ENCODING 70
SWIDTH 578 0
DWIDTH 11 0
BBX 9 13 2 0
BITMAP
FF80
FF80
C000
C000
C000
C000
FF00
FF00
C000
C000
C000
C000
C000
ENDCHAR
STARTCHAR 0047
ENCODING 71
SWIDTH 684 0
DWIDTH 13 0
BBX 11 13 1 0
BITMAP
3FC0
7FC0
E000
E000
E000
E7E0
E7E0
E0E0
E0E0
E0E0
E0E0
7FE0
3FE0
ENDCHAR
STARTCHAR 0048
ENCODING 72
SWIDTH 684 0
DWIDTH 13 0
BBX 10 13 2 0
BITMAP
C1C0
C1C0
C1C0
C1C0
C1C0
FFC0
FFC0
C1C0
C1C0
C1C0
C1C0
C1C0
C1C0
ENDCHAR
STARTCHAR 0049
ENCODING 73
SWIDTH 315 0
DWIDTH 6 0
BBX 2 13 2 0
BITMAP
C0
C0
C0
C0
C0
C0
C0
C0
C0
C0
C0
C0
C0
ENDCHAR
STARTCHAR 004A
ENCODING 74
SWIDTH 631 0
DWIDTH 12 0
BBX 9 13 1 0
BITMAP
1F80
1F80
0380
0380
0380
0380
0380
E380
E380
E380
E380
FF80
7F00
ENDCHAR
STARTCHAR 004B
ENCODING 75
SWIDTH 684 0
DWIDTH 13 0
BBX 10 13 2 0
BITMAP
C3C0
C380
C700
CE00
DC00
FC00
FC00
EE00
EF00
C700
C380
C3C0
C1C0
ENDCHAR
STARTCHAR 004C
ENCODING 76
SWIDTH 526 0
DWIDTH 10 0
BBX 8 13 2 0
BITMAP
C0
C0
C0
C0
C0
C0
C0
C0
C0
C0
C0
FF
FF
ENDCHAR
STARTCHAR 004D
ENCODING 77
SWIDTH 894 0
DWIDTH 17 0
BBX 13 13 2 0
BITMAP
E038
F078
F078
F078
F8F8
D8D8
DDD8
CD98
CF98
C798
C718
C018
C018
ENDCHAR
STARTCHAR 004E
ENCODING 78
SWIDTH 736 0
DWIDTH 14 0
BBX 10 13 2 0
BITMAP
E0C0
E0C0
F0C0
F8C0
F8C0
DCC0
CCC0
CEC0
C7C0
C7C0
C3C0
C1C0
C1C0
ENDCHAR
STARTCHAR 004F
ENCODING 79
SWIDTH 684 0
DWIDTH 13 0
BBX 11 13 1 0
BITMAP
3FC0
7FE0
E0E0
E0E0
E0E0
E0E0
E0E0
E0E0
E0E0
E0E0
E0E0
7FE0
3FC0
ENDCHAR
STARTCHAR 0050
ENCODING 80
SWIDTH 631 0
DWIDTH 12 0
BBX 9 13 2 0
BITMAP
FF00
FF80
C380
C380
C380
C380
C380
FF80
FF00
C000
C000
C000
C000
ENDCHAR
STARTCHAR 0051
ENCODING 81
SWIDTH 684 0
DWIDTH 13 0
BBX 11 16 1 -3
BITMAP
3FC0
7FE0
E0E0
E0E0
E0E0
E0E0
E0E0
E0E0
E0E0
E0E0
E0E0
7FE0
3FC0
0380
01C0
01C0
ENDCHAR
STARTCHAR 0052
ENCODING 82
SWIDTH 631 0
DWIDTH 12 0
BBX 10 13 2 0
BITMAP
FF00
FF80
C380
C380
C380
C380
FF80
FF80
C600
C700
C380
C380
C1C0
ENDCHAR
STARTCHAR 0053
ENCODING 83
SWIDTH 578 0
DWIDTH 11 0
BBX 9 13 1 0
BITMAP
7F00
FF80
E000
E000
E000
FC00
7F80
1F80
0380
0380
0380
FF80
7F00
ENDCHAR
STARTCHAR 0054
ENCODING 84
SWIDTH 631 0
DWIDTH 12 0
BBX 11 13 0 0
BITMAP
FFE0
FFE0
0E00
0E00
0E00
0E00
0E00
0E00
0E00
0E00
0E00
0E00
0E00
ENDCHAR
STARTCHAR 0055
ENCODING 85
SWIDTH 684 0
DWIDTH 13 0
BBX 11 13 1 0
BITMAP
E0E0
E0E0
E0E0
E0E0
E0E0
E0E0
E0E0
E0E0
E0E0
E0E0
F0E0
7FC0
3FC0
ENDCHAR
STARTCHAR 0056
ENCODING 86
SWIDTH 631 0
DWIDTH 12 0
BBX 12 13 0 0
BITMAP
E070
7070
7070
70E0
30E0
38E0
38C0
39C0
1DC0
1D80
1F80
0F80
0F80
ENDCHAR
STARTCHAR 0057
ENCODING 87
SWIDTH 947 0
DWIDTH 18 0
BBX 17 13 1 0
BITMAP
C00380
C18300
E3C300
E3C700
E3C700
63C700
67E600
77E600
776E00
766E00
3E7E00
3E7C00
3E3C00
ENDCHAR
STARTCHAR 0058
ENCODING 88
SWIDTH 631 0
DWIDTH 12 0
BBX 11 13 1 0
BITMAP
E0E0
E1C0
7380
3B80
3F00
1E00
0E00
1E00
3F00
3380
7380
E1C0
E0E0
ENDCHAR
STARTCHAR 0059
ENCODING 89
SWIDTH 631 0
DWIDTH 12 0
BBX 11 13 0 0
BITMAP
E0E0
70E0
71C0
39C0
3B80
1F80
1F00
0F00
0E00
0E00
0E00
0E00
0E00
ENDCHAR
STARTCHAR 005A
ENCODING 90
SWIDTH 631 0
DWIDTH 12 0
BBX 10 13 1 0
BITMAP
FFC0
FFC0
0380
0780
0700
0E00
1C00
3C00
3800
7000
E000
FFC0
FFC0
ENDCHAR
STARTCHAR 005B
ENCODING 91
SWIDTH 368 0
DWIDTH 7 0
BBX 5 17 2 -3
BITMAP
F8
F8
C0
C0
C0
C0
C0
C0
C0
C0
C0
C0
C0
C0
C0
F8
F8
ENDCHAR
STARTCHAR 005C
ENCODING 92
SWIDTH 421 0
DWIDTH 8 0
BBX 8 15 0 -1
BITMAP
E0
60
70
70
30
38
18
18
1C
0C
0E
0E
06
07
02
ENDCHAR
STARTCHAR 005D
ENCODING 93
SWIDTH 368 0
DWIDTH 7 0
BBX 5 17 1 -3
BITMAP
F8
F8
38
38
38
38
38
38
38
38
38
38
38
38
38
F8
F8
ENDCHAR
STARTCHAR 005E
ENCODING 94
SWIDTH 578 0
DWIDTH 11 0
BBX 9 7 1 6
BITMAP
1C00
3C00
3E00
7700
6300
E380
C180
ENDCHAR
STARTCHAR 005F
ENCODING 95
SWIDTH 578 0
DWIDTH 11 0
BBX 9 2 1 -4
BITMAP
FF80
FF80
ENDCHAR
STARTCHAR 0060
ENCODING 96
SWIDTH 526 0
DWIDTH 10 0
BBX 4 4 2 11
BITMAP
40
E0
30
10
ENDCHAR
STARTCHAR 0061
ENCODING 97
SWIDTH 526 0
DWIDTH 10 0
BBX 8 10 1 0
BITMAP
7E
7F
07
03
7F
FF
C3
E3
FF
7F
ENDCHAR
STARTCHAR 0062
ENCODING 98
SWIDTH 578 0
DWIDTH 11 0
BBX 9 14 1 0
BITMAP
E000
E000
E000
E000
FF00
FF80
E380
E380
E380
E380
E380
E380
FF80
FF00
ENDCHAR
STARTCHAR 0063
ENCODING 99
SWIDTH 526 0
DWIDTH 10 0
BBX 8 10 1 0
BITMAP
7E
FF
E0
E0
E0
E0
E0
E0
FF
7E
ENDCHAR
STARTCHAR 0064
ENCODING 100
SWIDTH 578 0
DWIDTH 11 0
BBX 9 14 1 0
BITMAP
0380
0380
0380
0380
7F80
FF80
E380
E380
E380
E380
E380
E380
FF80
7F80
ENDCHAR
STARTCHAR 0065
ENCODING 101
SWIDTH 578 0
DWIDTH 11 0
BBX 9 10 1 0
BITMAP
7F00
FF80
E380
E380
FF80
FF80
E000
E000
FF00
7F00
ENDCHAR
STARTCHAR 0066
ENCODING 102
SWIDTH 421 0
DWIDTH 8 0
BBX 6 14 1 0
BITMAP
7C
7C
E0
E0
FC
FC
E0
E0
E0
E0
E0
E0
E0
E0
ENDCHAR
STARTCHAR 0067
ENCODING 103
SWIDTH 578 0
DWIDTH 11 0
BBX 9 14 1 -4
BITMAP
7F80
FF80
E380
E380
E380
E380
E380
E380
FF80
7F80
0380
0380
7F00
7F00
ENDCHAR
STARTCHAR 0068
ENCODING 104
SWIDTH 578 0
DWIDTH 11 0
BBX 9 14 1 0
BITMAP
E000
E000
E000
E000
FF00
FF80
E380
E380
E380
E380
E380
E380
E380
E380
ENDCHAR
STARTCHAR 0069
ENCODING 105
SWIDTH 263 0
DWIDTH 5 0
BBX 3 15 1 0
BITMAP
E0
E0
E0
00
00
E0
E0
E0
E0
E0
E0
E0
E0
E0
E0
ENDCHAR
STARTCHAR 006A
ENCODING 106
SWIDTH 263 0
DWIDTH 5 0
BBX 4 19 0 -4
BITMAP
70
70
70
00
00
70
70
70
70
70
70
70
70
70
70
70
70
E0
C0
ENDCHAR
STARTCHAR 006B
ENCODING 107
SWIDTH 578 0
DWIDTH 11 0
BBX 10 14 1 0
BITMAP
E000
E000
E000
E000
E380
E700
EE00
FC00
FC00
FE00
FE00
E700
E380
E3C0
ENDCHAR
STARTCHAR 006C
ENCODING 108
SWIDTH 315 0
DWIDTH 6 0
BBX 4 14 1 0
BITMAP
E0
E0
E0
E0
E0
E0
E0
E0
E0
E0
E0
E0
70
30
ENDCHAR
STARTCHAR 006D
ENCODING 109
SWIDTH 894 0
DWIDTH 17 0
BBX 15 10 1 0
BITMAP
FFFC
FFFE
E38E
E38E
E38E
E38E
E38E
E38E
E38E
E38E
ENDCHAR
STARTCHAR 006E
ENCODING 110
SWIDTH 578 0
DWIDTH 11 0
BBX 9 10 1 0
BITMAP
FF00
FF80
E380
E380
E380
E380
E380
E380
E380
E380
ENDCHAR
STARTCHAR 006F
ENCODING 111
SWIDTH 578 0
DWIDTH 11 0
BBX 9 10 1 0
BITMAP
7F00
FF80
E380
E380
E380
E380
E380
E380
FF80
7F00
ENDCHAR
STARTCHAR 0070
ENCODING 112
SWIDTH 578 0
DWIDTH 11 0
BBX 9 14 1 -4
BITMAP
FF00
FF80
E380
E380
E380
E380
E380
E380
FF80
FF00
E000
E000
E000
E000
ENDCHAR
STARTCHAR 0071
ENCODING 113
SWIDTH 578 0
DWIDTH 11 0
BBX 9 14 1 -4
BITMAP
7F80
FF80
E380
E380
E380
E380
E380
E380
FF80
7F80
0380
0380
0380
0380
ENDCHAR
STARTCHAR 0072
ENCODING 114
SWIDTH 421 0
DWIDTH 8 0
BBX 6 10 1 0
BITMAP
7C
FC
E0
E0
E0
E0
E0
E0
E0
E0
ENDCHAR
STARTCHAR 0073
ENCODING 115
SWIDTH 526 0
DWIDTH 10 0
BBX 8 10 1 0
BITMAP
7E
FE
E0
E0
FC
7E
07
07
FE
7E
ENDCHAR
STARTCHAR 0074
ENCODING 116
SWIDTH 421 0
DWIDTH 8 0
BBX 6 13 1 0
BITMAP
E0
E0
E0
FC
FC
E0
E0
E0
E0
E0
E0
7C
7C
ENDCHAR
STARTCHAR 0075
ENCODING 117
SWIDTH 578 0
DWIDTH 11 0
BBX 9 10 1 0
BITMAP
E380
E380
E380
E380
E380
E380
E380
E380
7F80
7F80
ENDCHAR
STARTCHAR 0076
ENCODING 118
SWIDTH 578 0
DWIDTH 11 0
BBX 10 10 0 0
BITMAP
E0C0
61C0
71C0
7180
3380
3B80
3B00
1F00
1F00
1E00
ENDCHAR
STARTCHAR 0077
ENCODING 119
SWIDTH 842 0
DWIDTH 16 0
BBX 15 10 0 0
BITMAP
E386
63CE
63CE
73CE
77CC
76EC
366C
367C
3E7C
3C78
ENDCHAR
STARTCHAR 0078
ENCODING 120
SWIDTH 578 0
DWIDTH 11 0
BBX 9 10 1 0
BITMAP
E380
E700
7600
3E00
1C00
3C00
3E00
7700
E700
C380
ENDCHAR
STARTCHAR 0079
ENCODING 121
SWIDTH 578 0
DWIDTH 11 0
BBX 10 14 0 -4
BITMAP
E0C0
61C0
71C0
7180
3380
3B80
3B00
1F00
1F00
1E00
0E00
0E00
0C00
1C00
ENDCHAR
STARTCHAR 007A
ENCODING 122
SWIDTH 526 0
DWIDTH 10 0
BBX 8 10 1 0
BITMAP
FF
FF
0E
1E
1C
38
70
E0
FF
FF
ENDCHAR
STARTCHAR 007B
ENCODING 123
SWIDTH 421 0
DWIDTH 8 0
BBX 6 17 1 -3
BITMAP
1C
3C
70
70
70
70
70
F0
E0
F0
70
70
70
70
70
3C
1C
ENDCHAR
STARTCHAR 007C
ENCODING 124
SWIDTH 315 0
DWIDTH 6 0
BBX 2 18 2 -4
BITMAP
C0
C0
C0
C0
C0
C0
C0
C0
C0
C0
C0
C0
C0
C0
C0
C0
C0
C0
ENDCHAR
STARTCHAR 007D
ENCODING 125
SWIDTH 421 0
DWIDTH 8 0
BBX 6 17 1 -3
BITMAP
E0
F0
30
38
38
38
38
3C
1C
3C
38
38
38
38
30
F0
E0
ENDCHAR
STARTCHAR 007E
ENCODING 126
SWIDTH 578 0
DWIDTH 11 0
BBX 9 5 1 4
BITMAP
3100
7980
FF80
CF00
4600
ENDCHAR
STARTCHAR 00A0
ENCODING 160
SWIDTH 263 0
DWIDTH 5 0
BBX 0 0 0 0
BITMAP
ENDCHAR
STARTCHAR 00A1
ENCODING 161
SWIDTH 263 0
DWIDTH 5 0
BBX 3 13 1 -3
BITMAP
E0
E0
E0
00
E0
E0
E0
E0
E0
E0
E0
E0
E0
ENDCHAR
STARTCHAR 00A2
ENCODING 162
SWIDTH 578 0
DWIDTH 11 0
BBX 7 14 2 -2
BITMAP
18
18
7E
FE
C0
C0
C0
C0
C0
C0
FE
7E
18
18
ENDCHAR
STARTCHAR 00A3
ENCODING 163
SWIDTH 578 0
DWIDTH 11 0
BBX 9 13 1 0
BITMAP
1F00
3F80
3800
3000
3000
FE00
FE00
3000
3000
3000
3000
FF80
FF80
ENDCHAR
STARTCHAR 00A4
ENCODING 164
SWIDTH 578 0
DWIDTH 11 0
BBX 9 10 1 2
BITMAP
4100
C180
7F00
7F00
6700
6700
7F00
7F00
C180
4100
ENDCHAR
STARTCHAR 00A5
ENCODING 165
SWIDTH 578 0
DWIDTH 11 0
BBX 11 13 0 0
BITMAP
E0E0
71C0
71C0
3B80
3B80
1F00
3F80
3F80
0E00
3F80
3F80
0E00
0E00
ENDCHAR
STARTCHAR 00A6
ENCODING 166
SWIDTH 315 0
DWIDTH 6 0
BBX 2 18 2 -4
BITMAP
C0
C0
C0
C0
C0
C0
C0
00
00
00
00
C0
C0
C0
C0
C0
C0
C0
ENDCHAR
STARTCHAR 00A7
ENCODING 167
SWIDTH 526 0
DWIDTH 10 0
BBX 8 15 1 -2
BITMAP
7E
7F
E0
E0
7E
7F
E7
E7
E7
7F
3F
07
07
FF
7E
ENDCHAR
STARTCHAR 00A8
ENCODING 168
SWIDTH 526 0
DWIDTH 10 0
BBX 6 3 2 11
BITMAP
CC
CC
CC
ENDCHAR
STARTCHAR 00A9
ENCODING 169
SWIDTH 842 0
DWIDTH 16 0
BBX 14 13 1 0
BITMAP
7FF8
FFFC
C00C
C78C
CFCC
CC0C
CC0C
CC0C
CFCC
C78C
C00C
FFFC
7FF8
ENDCHAR
STARTCHAR 00AA
ENCODING 170
SWIDTH 421 0
DWIDTH 8 0
BBX 6 8 1 5
BITMAP
78
FC
0C
FC
FC
CC
FC
FC
ENDCHAR
STARTCHAR 00AB
ENCODING 171
SWIDTH 578 0
DWIDTH 11 0
BBX 9 9 1 1
BITMAP
1100
3980
7300
E700
CE00
E700
7300
3980
1100
ENDCHAR
STARTCHAR 00AC
ENCODING 172
SWIDTH 578 0
DWIDTH 11 0
BBX 9 6 1 2
BITMAP
FF80
FF80
0380
0380
0380
0380
ENDCHAR
STARTCHAR 00AD
ENCODING 173
SWIDTH 368 0
DWIDTH 7 0
BBX 5 2 1 5
BITMAP
F8
F8
ENDCHAR
STARTCHAR 00AE
ENCODING 174
SWIDTH 842 0
DWIDTH 16 0
BBX 14 13 1 0
BITMAP
7FF8
FFFC
C00C
CF8C
CFCC
CCCC
CFCC
CF8C
CDCC
CCCC
C00C
FFFC
7FF8
ENDCHAR
STARTCHAR 00AF
ENCODING 175
SWIDTH 526 0
DWIDTH 10 0
BBX 6 2 2 12
BITMAP
FC
FC
ENDCHAR
STARTCHAR 00B0
ENCODING 176
SWIDTH 421 0
DWIDTH 8 0
BBX 6 6 1 7
BITMAP
78
FC
CC
CC
FC
78
ENDCHAR
STARTCHAR 00B1
ENCODING 177
SWIDTH 578 0
DWIDTH 11 0
BBX 9 12 1 0
BITMAP
1C00
1C00
1C00
FF80
FF80
1C00
1C00
1C00
0000
0000
FF80
FF80
ENDCHAR
STARTCHAR 00B2
ENCODING 178
SWIDTH 368 0
DWIDTH 7 0
BBX 5 8 1 5
BITMAP
F8
F8
18
78
F0
C0
F8
F8
ENDCHAR
STARTCHAR 00B3
ENCODING 179
SWIDTH 368 0
DWIDTH 7 0
BBX 5 8 1 5
BITMAP
F8
F8
18
78
78
18
F8
F8
ENDCHAR
STARTCHAR 00B4
ENCODING 180
SWIDTH 526 0
DWIDTH 10 0
BBX 4 4 3 11
BITMAP
20
70
E0
40
ENDCHAR
STARTCHAR 00B5
ENCODING 181
SWIDTH 578 0
DWIDTH 11 0
BBX 9 14 1 -4
BITMAP
E380
E380
E380
E380
E380
E380
E380
E380
FF80
FF00
E000
E000
E000
E000
ENDCHAR
STARTCHAR 00B6
ENCODING 182
SWIDTH 631 0
DWIDTH 12 0
BBX 10 16 1 -3
BITMAP
7DC0
FDC0
FDC0
FDC0
FDC0
FDC0
FDC0
FDC0
7DC0
01C0
01C0
01C0
01C0
01C0
01C0
01C0
ENDCHAR
STARTCHAR 00B7
ENCODING 183
SWIDTH 263 0
DWIDTH 5 0
BBX 3 3 1 5
BITMAP
E0
E0
E0
ENDCHAR
STARTCHAR 00B8
ENCODING 184
SWIDTH 526 0
DWIDTH 10 0
BBX 4 5 3 -4
BITMAP
30
30
30
F0
E0
ENDCHAR
STARTCHAR 00B9
ENCODING 185
SWIDTH 368 0
DWIDTH 7 0
BBX 5 8 1 5
BITMAP
70
F0
30
30
30
30
F8
F8
ENDCHAR
STARTCHAR 00BA
ENCODING 186
SWIDTH 421 0
DWIDTH 8 0
BBX 6 8 1 5
BITMAP
7C
FC
CC
CC
CC
CC
FC
7C
ENDCHAR
STARTCHAR 00BB
ENCODING 187
SWIDTH 578 0
DWIDTH 11 0
BBX 10 9 1 1
BITMAP
4400
EE00
6700
7380
39C0
7380
6700
EE00
4400
ENDCHAR
STARTCHAR 00BC
ENCODING 188
SWIDTH 894 0
DWIDTH 17 0
BBX 15 13 1 0
BITMAP
7020
F070
3060
30E0
30C0
31D8
F998
FBB0
0336
0736
067E
0C7E
0406
ENDCHAR
STARTCHAR 00BD
ENCODING 189
SWIDTH 894 0
DWIDTH 17 0
BBX 16 13 1 0
BITMAP
7020
F070
3060
30E0
30C0
31DE
F9BF
FB83
031F
073E
0630
0C3F
043F
ENDCHAR
STARTCHAR 00BE
ENCODING 190
SWIDTH 842 0
DWIDTH 16 0
BBX 14 13 1 0
BITMAP
F860
F860
18E0
78C0
79C0
1998
FBB0
FB30
077C
066C
0C7C
1C7C
080C
ENDCHAR
STARTCHAR 00BF
ENCODING 191
SWIDTH 526 0
DWIDTH 10 0
BBX 8 13 1 -3
BITMAP
1C
1C
1C
00
1C
7C
FC
E0
E0
E0
E0
FF
7F
ENDCHAR
STARTCHAR 00C0
ENCODING 192
SWIDTH 684 0
DWIDTH 13 0
BBX 12 18 0 0
BITMAP
0400
0E00
0700
0200
0000
0F80
0F80
1F80
1DC0
1DC0
19C0
38C0
38E0
3FE0
7FE0
7070
6070
E030
ENDCHAR
STARTCHAR 00C1
ENCODING 193
SWIDTH 684 0
DWIDTH 13 0
BBX 12 18 0 0
BITMAP
0100
0380
0700
0400
0000
0F80
0F80
1F80
1DC0
1DC0
19C0
38C0
38E0
3FE0
7FE0
7070
6070
E030
ENDCHAR
STARTCHAR 00C2
ENCODING 194
SWIDTH 684 0
DWIDTH 13 0
BBX 12 18 0 0
BITMAP
0200
0700
1D80
0880
0000
0F80
0F80
1F80
1DC0
1DC0
19C0
38C0
38E0
3FE0
7FE0
7070
6070
E030
ENDCHAR
STARTCHAR 00C3
ENCODING 195
SWIDTH 684 0
DWIDTH 13 0
BBX 12 17 0 0
BITMAP
0C80
1FC0
0B00
0000
0F80
0F80
1F80
1DC0
1DC0
19C0
38C0
38E0
3FE0
7FE0
7070
6070
E030
ENDCHAR
STARTCHAR 00C4
ENCODING 196
SWIDTH 684 0
DWIDTH 13 0
BBX 12 17 0 0
BITMAP
1D80
1D80
1D80
0000
0F80
0F80
1F80
1DC0
1DC0
19C0
38C0
38E0
3FE0
7FE0
7070
6070
E030
ENDCHAR
STARTCHAR 00C5
ENCODING 197
SWIDTH 684 0
DWIDTH 13 0
BBX 12 18 0 0
BITMAP
0F00
0D80
0D80
0F00
0000
0F80
0F80
1F80
1DC0
1DC0
19C0
38C0
38E0
3FE0
7FE0
7070
6070
E030
ENDCHAR
STARTCHAR 00C6
ENCODING 198
SWIDTH 947 0
DWIDTH 18 0
BBX 17 13 0 0
BITMAP
0FFF80
0FFF80
1CE000
1CE000
1CE000
18FF00
38FF00
38E000
3FE000
7FE000
70E000
60FF80
E0FF80
ENDCHAR
STARTCHAR 00C7
ENCODING 199
SWIDTH 631 0
DWIDTH 12 0
BBX 10 17 1 -4
BITMAP
3F80
7FC0
E000
E000
E000
E000
E000
E000
E000
E000
E000
7FC0
3F80
0300
0300
1E00
0E00
ENDCHAR
STARTCHAR 00C8
ENCODING 200
SWIDTH 578 0
DWIDTH 11 0
BBX 9 18 2 0
BITMAP
3000
3000
1C00
0800
0000
FF80
FF80
C000
C000
C000
FF00
FF00
C000
C000
C000
C000
FF80
FF80
ENDCHAR
STARTCHAR 00C9
ENCODING 201
SWIDTH 578 0
DWIDTH 11 0
BBX 9 18 2 0
BITMAP
0400
0E00
3800
1000
0000
FF80
FF80
C000
C000
C000
FF00
FF00
C000
C000
C000
C000
FF80
FF80
ENDCHAR
STARTCHAR 00CA
ENCODING 202
SWIDTH 578 0
DWIDTH 11 0
BBX 9 18 2 0
BITMAP
0800
1C00
7E00
2400
0000
FF80
FF80
C000
C000
C000
FF00
FF00
C000
C000
C000
C000
FF80
FF80
ENDCHAR
STARTCHAR 00CB
ENCODING 203
SWIDTH 578 0
DWIDTH 11 0
BBX 9 17 2 0
BITMAP
6600
6600
6600
0000
FF80
FF80
C000
C000
C000
FF00
FF00
C000
C000
C000
C000
FF80
FF80
ENDCHAR
STARTCHAR 00CC
ENCODING 204
SWIDTH 315 0
DWIDTH 6 0
BBX 5 18 0 0
BITMAP
40
E0
38
10
00
30
30
30
30
30
30
30
30
30
30
30
30
30
ENDCHAR
STARTCHAR 00CD
ENCODING 205
SWIDTH 315 0
DWIDTH 6 0
BBX 4 18 1 0
BITMAP
30
30
E0
40
00
60
60
60
60
60
60
60
60
60
60
60
60
60
ENDCHAR
STARTCHAR 00CE
ENCODING 206
SWIDTH 315 0
DWIDTH 6 0
BBX 6 18 0 0
BITMAP
20
78
FC
48
00
30
30
30
30
30
30
30
30
30
30
30
30
30
ENDCHAR
STARTCHAR 00CF
ENCODING 207
SWIDTH 315 0
DWIDTH 6 0
BBX 6 17 0 0
BITMAP
CC
CC
CC
00
30
30
30
30
30
30
30
30
30
30
30
30
30
ENDCHAR
STARTCHAR 00D0
ENCODING 208
SWIDTH 684 0
DWIDTH 13 0
BBX 12 13 0 0
BITMAP
3FC0
3FE0
38F0
3870
3870
FE70
FE70
3870
3870
3870
38F0
3FE0
3FC0
ENDCHAR
STARTCHAR 00D1
ENCODING 209
SWIDTH 736 0
DWIDTH 14 0
BBX 10 17 2 0
BITMAP
1900
3F00
2600
0000
E0C0
E0C0
F0C0
F8C0
F8C0
DCC0
CCC0
CEC0
C7C0
C7C0
C3C0
C1C0
C1C0
ENDCHAR
STARTCHAR 00D2
ENCODING 210
SWIDTH 684 0
DWIDTH 13 0
BBX 11 18 1 0
BITMAP
0800
1C00
0600
0200
0000
3FC0
7FE0
E0E0
E0E0
E0E0
E0E0
E0E0
E0E0
E0E0
E0E0
E0E0
7FE0
3FC0
ENDCHAR
STARTCHAR 00D3
ENCODING 211
SWIDTH 684 0
DWIDTH 13 0
BBX 11 18 1 0
BITMAP
0200
0700
0E00
0400
0000
3FC0
7FE0
E0E0
E0E0
E0E0
E0E0
E0E0
E0E0
E0E0
E0E0
E0E0
7FE0
3FC0
ENDCHAR
STARTCHAR 00D4
ENCODING 212
SWIDTH 684 0
DWIDTH 13 0
BBX 11 18 1 0
BITMAP
0400
0E00
1B80
1100
0000
3FC0
7FE0
E0E0
E0E0
E0E0
E0E0
E0E0
E0E0
E0E0
E0E0
E0E0
7FE0
3FC0
ENDCHAR
STARTCHAR 00D5
ENCODING 213
SWIDTH 684 0
DWIDTH 13 0
BBX 11 17 1 0
BITMAP
0D00
3F80
1300
0000
3FC0
7FE0
E0E0
E0E0
E0E0
E0E0
E0E0
E0E0
E0E0
E0E0
E0E0
7FE0
3FC0
ENDCHAR
STARTCHAR 00D6
ENCODING 214
SWIDTH 684 0
DWIDTH 13 0
BBX 11 17 1 0
BITMAP
1B80
1B80
1B80
0000
3FC0
7FE0
E0E0
E0E0
E0E0
E0E0
E0E0
E0E0
E0E0
E0E0
E0E0
7FE0
3FC0
ENDCHAR
STARTCHAR 00D7
ENCODING 215
SWIDTH 578 0
DWIDTH 11 0
BBX 9 9 1 2
BITMAP
4100
E380
7700
3E00
1C00
3E00
7700
E380
4100
ENDCHAR
STARTCHAR 00D8
ENCODING 216
SWIDTH 684 0
DWIDTH 13 0
BBX 11 13 1 0
BITMAP
3FC0
7FE0
E0E0
E0E0
E1E0
E3E0
EEE0
FCE0
F8E0
F0E0
E0E0
7FE0
3FC0
ENDCHAR
STARTCHAR 00D9
ENCODING 217
SWIDTH 684 0
DWIDTH 13 0
BBX 11 18 1 0
BITMAP
0800
1C00
0E00
0600
0000
E0E0
E0E0
E0E0
E0E0
E0E0
E0E0
E0E0
E0E0
E0E0
E0E0
F0E0
7FC0
3FC0
ENDCHAR
STARTCHAR 00DA
ENCODING 218
SWIDTH 684 0
DWIDTH 13 0
BBX 11 18 1 0
BITMAP
0200
0700
0E00
0400
0000
E0E0
E0E0
E0E0
E0E0
E0E0
E0E0
E0E0
E0E0
E0E0
E0E0
F0E0
7FC0
3FC0
ENDCHAR
STARTCHAR 00DB
ENCODING 219
SWIDTH 684 0
DWIDTH 13 0
BBX 11 18 1 0
BITMAP
0400
0E00
1B80
1100
0000
E0E0
E0E0
E0E0
E0E0
E0E0
E0E0
E0E0
E0E0
E0E0
E0E0
F0E0
7FC0
3FC0
ENDCHAR
STARTCHAR 00DC
ENCODING 220
SWIDTH 684 0
DWIDTH 13 0
BBX 11 17 1 0
BITMAP
1B80
1B80
1B80
0000
E0E0
E0E0
E0E0
E0E0
E0E0
E0E0
E0E0
E0E0
E0E0
E0E0
F0E0
7FC0
3FC0
ENDCHAR
STARTCHAR 00DD
ENCODING 221
SWIDTH 631 0
DWIDTH 12 0
BBX 11 18 0 0
BITMAP
0200
0700
0E00
0400
0000
E0E0
70E0
71C0
39C0
3B80
1F80
1F00
0F00
0E00
0E00
0E00
0E00
0E00
ENDCHAR
STARTCHAR 00DE
ENCODING 222
SWIDTH 631 0
DWIDTH 12 0
BBX 9 13 2 0
BITMAP
C000
C000
FF00
FF80
C380
C380
C380
C380
C380
FF80
FF00
C000
C000
ENDCHAR
STARTCHAR 00DF
ENCODING 223
SWIDTH 631 0
DWIDTH 12 0
BBX 10 14 1 0
BITMAP
7F00
7F80
E380
E180
E180
E380
EF00
EF80
E1C0
E1C0
E1C0
E1C0
EF80
E700
ENDCHAR
STARTCHAR 00E0
ENCODING 224
SWIDTH 526 0
DWIDTH 10 0
BBX 8 15 1 0
BITMAP
10
38
1C
08
00
7E
7F
07
03
7F
FF
C3
E3
FF
7F
ENDCHAR
STARTCHAR 00E1
ENCODING 225
SWIDTH 526 0
DWIDTH 10 0
BBX 8 15 1 0
BITMAP
04
0E
18
10
00
7E
7F
07
03
7F
FF
C3
E3
FF
7F
ENDCHAR
STARTCHAR 00E2
ENCODING 226
SWIDTH 526 0
DWIDTH 10 0
BBX 8 15 1 0
BITMAP
08
1C
7E
22
00
7E
7F
07
03
7F
FF
C3
E3
FF
7F
ENDCHAR
STARTCHAR 00E3
ENCODING 227
SWIDTH 526 0
DWIDTH 10 0
BBX 8 14 1 0
BITMAP
32
7F
4C
00
7E
7F
07
03
7F
FF
C3
E3
FF
7F
ENDCHAR
STARTCHAR 00E4
ENCODING 228
SWIDTH 526 0
DWIDTH 10 0
BBX 8 14 1 0
BITMAP
66
66
66
00
7E
7F
07
03
7F
FF
C3
E3
FF
7F
ENDCHAR
STARTCHAR 00E5
ENCODING 229
SWIDTH 526 0
DWIDTH 10 0
BBX 8 15 1 0
BITMAP
3C
34
34
3C
00
7E
7F
07
03
7F
FF
C3
E3
FF
7F
ENDCHAR
STARTCHAR 00E6
ENCODING 230
SWIDTH 842 0
DWIDTH 16 0
BBX 14 10 1 0
BITMAP
7DF8
7FFC
071C
030C
7FFC
FFFC
C300
E700
FFFC
7DF8
ENDCHAR
STARTCHAR 00E7
ENCODING 231
SWIDTH 526 0
DWIDTH 10 0
BBX 8 14 1 -4
BITMAP
7E
FF
E0
E0
E0
E0
E0
E0
FF
7E
06
06
3C
1C
ENDCHAR
STARTCHAR 00E8
ENCODING 232
SWIDTH 578 0
DWIDTH 11 0
BBX 9 15 1 0
BITMAP
1000
3800
1C00
0800
0000
7F00
FF80
E380
E380
FF80
FF80
E000
E000
FF00
7F00
ENDCHAR
STARTCHAR 00E9
ENCODING 233
SWIDTH 578 0
DWIDTH 11 0
BBX 9 15 1 0
BITMAP
0400
0E00
1C00
0800
0000
7F00
FF80
E380
E380
FF80
FF80
E000
E000
FF00
7F00
ENDCHAR
STARTCHAR 00EA
ENCODING 234
SWIDTH 578 0
DWIDTH 11 0
BBX 9 15 1 0
BITMAP
0800
1C00
3700
2200
0000
7F00
FF80
E380
E380
FF80
FF80
E000
E000
FF00
7F00
ENDCHAR
STARTCHAR 00EB
ENCODING 235
SWIDTH 578 0
DWIDTH 11 0
BBX 9 14 1 0
BITMAP
7700
7700
7700
0000
7F00
FF80
E380
E380
FF80
FF80
E000
E000
FF00
7F00
ENDCHAR
STARTCHAR 00EC
ENCODING 236
SWIDTH 263 0
DWIDTH 5 0
BBX 4 15 0 0
BITMAP
40
E0
70
10
00
70
70
70
70
70
70
70
70
70
70
ENDCHAR
STARTCHAR 00ED
ENCODING 237
SWIDTH 263 0
DWIDTH 5 0
BBX 4 15 1 0
BITMAP
20
70
E0
40
00
E0
E0
E0
E0
E0
E0
E0
E0
E0
E0
ENDCHAR
STARTCHAR 00EE
ENCODING 238
SWIDTH 263 0
DWIDTH 5 0
BBX 6 15 0 0
BITMAP
20
70
DC
88
00
70
70
70
70
70
70
70
70
70
70
ENDCHAR
STARTCHAR 00EF
ENCODING 239
SWIDTH 263 0
DWIDTH 5 0
BBX 6 14 0 0
BITMAP
DC
DC
DC
00
70
70
70
70
70
70
70
70
70
70
ENDCHAR
STARTCHAR 00F0
ENCODING 240
SWIDTH 578 0
DWIDTH 11 0
BBX 9 14 1 0
BITMAP
0C00
1F00
0F80
3F00
1700
0380
7F80
FF80
E380
E380
E380
E380
FF80
7F00
ENDCHAR
STARTCHAR 00F1
ENCODING 241
SWIDTH 578 0
DWIDTH 11 0
BBX 9 14 1 0
BITMAP
3A00
7F00
2600
0000
FF00
FF80
E380
E380
E380
E380
E380
E380
E380
E380
ENDCHAR
STARTCHAR 00F2
ENCODING 242
SWIDTH 578 0
DWIDTH 11 0
BBX 9 15 1 0
BITMAP
1000
3800
1C00
0C00
0000
7F00
FF80
E380
E380
E380
E380
E380
E380
FF80
7F00
ENDCHAR
STARTCHAR 00F3
ENCODING 243
SWIDTH 578 0
DWIDTH 11 0
BBX 9 15 1 0
BITMAP
0400
0E00
1C00
0800
0000
7F00
FF80
E380
E380
E380
E380
E380
E380
FF80
7F00
ENDCHAR
STARTCHAR 00F4
ENCODING 244
SWIDTH 578 0
DWIDTH 11 0
BBX 9 15 1 0
BITMAP
0800
1C00
3700
2200
0000
7F00
FF80
E380
E380
E380
E380
E380
E380
FF80
7F00
ENDCHAR
STARTCHAR 00F5
ENCODING 245
SWIDTH 578 0
DWIDTH 11 0
BBX 9 14 1 0
BITMAP
3A00
7F00
2600
0000
7F00
FF80
E380
E380
E380
E380
E380
E380
FF80
7F00
ENDCHAR
STARTCHAR 00F6
ENCODING 246
SWIDTH 578 0
DWIDTH 11 0
BBX 9 14 1 0
BITMAP
3700
3700
3700
0000
7F00
FF80
E380
E380
E380
E380
E380
E380
FF80
7F00
ENDCHAR
STARTCHAR 00F7
ENCODING 247
SWIDTH 578 0
DWIDTH 11 0
BBX 9 10 1 2
BITMAP
1C00
1C00
0000
0000
FF80
FF80
0000
0000
1C00
1C00
ENDCHAR
STARTCHAR 00F8
ENCODING 248
SWIDTH 578 0
DWIDTH 11 0
BBX 9 10 1 0
BITMAP
7F00
FF80
E380
E780
EF80
FB80
F380
E380
FF80
7F00
ENDCHAR
STARTCHAR 00F9
ENCODING 249
SWIDTH 578 0
DWIDTH 11 0
BBX 9 15 1 0
BITMAP
1000
3800
1C00
0C00
0000
E380
E380
E380
E380
E380
E380
E380
E380
7F80
7F80
ENDCHAR
STARTCHAR 00FA
ENCODING 250
SWIDTH 578 0
DWIDTH 11 0
BBX 9 15 1 0
BITMAP
0400
0E00
1C00
0800
0000
E380
E380
E380
E380
E380
E380
E380
E380
7F80
7F80
ENDCHAR
STARTCHAR 00FB
ENCODING 251
SWIDTH 578 0
DWIDTH 11 0
BBX 9 15 1 0
BITMAP
0800
1C00
3700
2200
0000
E380
E380
E380
E380
E380
E380
E380
E380
7F80
7F80
ENDCHAR
STARTCHAR 00FC
ENCODING 252
SWIDTH 578 0
DWIDTH 11 0
BBX 9 14 1 0
BITMAP
3700
3700
3700
0000
E380
E380
E380
E380
E380
E380
E380
E380
7F80
7F80
ENDCHAR
STARTCHAR 00FD
ENCODING 253
SWIDTH 578 0
DWIDTH 11 0
BBX 10 19 0 -4
BITMAP
0200
0700
0C00
0800
0000
E0C0
61C0
71C0
7180
3380
3B80
3B00
1F00
1F00
1E00
0E00
0E00
0C00
1C00
ENDCHAR
STARTCHAR 00FE
ENCODING 254
SWIDTH 578 0
DWIDTH 11 0
BBX 9 18 1 -4
BITMAP
E000
E000
E000
E000
FF00
FF80
E380
E380
E380
E380
E380
E380
FF80
FF00
E000
E000
E000
E000
ENDCHAR
STARTCHAR 00FF
ENCODING 255
SWIDTH 578 0
DWIDTH 11 0
BBX 10 18 0 -4
BITMAP
3B00
3B00
3B00
0000
E0C0
61C0
71C0
7180
3380
3B80
3B00
1F00
1F00
1E00
0E00
0E00
0C00
1C00
ENDCHAR
STARTCHAR 0100
ENCODING 256
SWIDTH 684 0
DWIDTH 13 0
BBX 12 16 0 0
BITMAP
0F80
0F80
0000
0F80
0F80
1F80
1DC0
1DC0
19C0
38C0
38E0
3FE0
7FE0
7070
6070
E030
ENDCHAR
STARTCHAR 0101
ENCODING 257
SWIDTH 526 0
DWIDTH 10 0
BBX 8 14 1 0
BITMAP
7E
7E
00
00
7E
7F
07
03
7F
FF
C3
E3
FF
7F
ENDCHAR
STARTCHAR 0102
ENCODING 258
SWIDTH 684 0
DWIDTH 13 0
BBX 12 17 0 0
BITMAP
0980
0F80
0F80
0000
0F80
0F80
1F80
1DC0
1DC0
19C0
38C0
38E0
3FE0
7FE0
7070
6070
E030
ENDCHAR
STARTCHAR 0103
ENCODING 259
SWIDTH 526 0
DWIDTH 10 0
BBX 8 14 1 0
BITMAP
26
3E
3E
00
7E
7F
07
03
7F
FF
C3
E3
FF
7F
ENDCHAR
STARTCHAR 0104
ENCODING 260
SWIDTH 684 0
DWIDTH 13 0
BBX 12 17 0 -4
BITMAP
0F80
0F80
1F80
1DC0
1DC0
19C0
38C0
38E0
3FE0
7FE0
7070
6070
E0F0
00C0
00C0
00F0
0070
ENDCHAR
STARTCHAR 0105
ENCODING 261
SWIDTH 526 0
DWIDTH 10 0
BBX 8 14 1 -4
BITMAP
7E
7F
07
03
7F
FF
C3
E3
FF
7F
0C
0C
0F
07
ENDCHAR
STARTCHAR 0106
ENCODING 262
SWIDTH 631 0
DWIDTH 12 0
BBX 10 18 1 0
BITMAP
0200
0700
0E00
0400
0000
3F80
7FC0
E000
E000
E000
E000
E000
E000
E000
E000
E000
7FC0
3F80
ENDCHAR
STARTCHAR 0107
ENCODING 263
SWIDTH 526 0
DWIDTH 10 0
BBX 8 15 1 0
BITMAP
04
0E
1C
08
00
7E
FF
E0
E0
E0
E0
E0
E0
FF
7E
ENDCHAR
STARTCHAR 010C
ENCODING 268
SWIDTH 631 0
DWIDTH 12 0
BBX 10 18 1 0
BITMAP
1100
1B80
0E00
0400
0000
3F80
7FC0
E000
E000
E000
E000
E000
E000
E000
E000
E000
7FC0
3F80
ENDCHAR
STARTCHAR 010D
ENCODING 269
SWIDTH 526 0
DWIDTH 10 0
BBX 8 15 1 0
BITMAP
22
76
1C
08
00
7E
FF
E0
E0
E0
E0
E0
E0
FF
7E
ENDCHAR
STARTCHAR 010E
ENCODING 270
SWIDTH 684 0
DWIDTH 13 0
BBX 10 18 2 0
BITMAP
2200
7600
1C00
0800
0000
FE00
FF80
C780
C1C0
C1C0
C1C0
C1C0
C1C0
C1C0
C1C0
C780
FF80
FE00
ENDCHAR
STARTCHAR 010F
ENCODING 271
SWIDTH 684 0
DWIDTH 13 0
BBX 12 15 1 0
BITMAP
0030
03B0
03B0
03A0
0380
7F80
FF80
E380
E380
E380
E380
E380
E380
FF80
7F80
ENDCHAR
STARTCHAR 0110
ENCODING 272
SWIDTH 684 0
DWIDTH 13 0
BBX 12 13 0 0
BITMAP
3FC0
3FE0
38F0
3870
3870
FE70
FE70
3870
3870
3870
38F0
3FE0
3FC0
ENDCHAR
STARTCHAR 0111
ENCODING 273
SWIDTH 578 0
DWIDTH 11 0
BBX 10 14 1 0
BITMAP
0380
1FC0
1FC0
0380
7F80
FF80
E380
E380
E380
E380
E380
E380
FF80
7F80
ENDCHAR
STARTCHAR 0112
ENCODING 274
SWIDTH 578 0
DWIDTH 11 0
BBX 9 16 2 0
BITMAP
7E00
7E00
0000
FF80
FF80
C000
C000
C000
FF00
FF00
C000
C000
C000
C000
FF80
FF80
ENDCHAR
STARTCHAR 0113
ENCODING 275
SWIDTH 578 0
DWIDTH 11 0
BBX 9 14 1 0
BITMAP
3E00
3E00
0000
0000
7F00
FF80
E380
E380
FF80
FF80
E000
E000
FF00
7F00
ENDCHAR
STARTCHAR 0116
ENCODING 278
SWIDTH 578 0
DWIDTH 11 0
BBX 9 17 2 0
BITMAP
1800
1800
1800
0000
FF80
FF80
C000
C000
C000
FF00
FF00
C000
C000
C000
C000
FF80
FF80
ENDCHAR
STARTCHAR 0117
ENCODING 279
SWIDTH 578 0
DWIDTH 11 0
BBX 9 15 1 0
BITMAP
1C00
1C00
1C00
0000
0000
7F00
FF80
E380
E380
FF80
FF80
E000
E000
FF00
7F00
ENDCHAR
STARTCHAR 0118
ENCODING 280
SWIDTH 578 0
DWIDTH 11 0
BBX 9 17 2 -4
BITMAP
FF80
FF80
C000
C000
C000
FF00
FF00
C000
C000
C000
C000
FF80
FF80
0C00
0C00
0780
0700
ENDCHAR
STARTCHAR 0119
ENCODING 281
SWIDTH 578 0
DWIDTH 11 0
BBX 9 14 1 -4
BITMAP
7F00
FF80
E380
E380
FF80
FF80
E000
E000
FF00
7F00
0C00
0C00
0F00
0700
ENDCHAR
STARTCHAR 011A
ENCODING 282
SWIDTH 578 0
DWIDTH 11 0
BBX 9 18 2 0
BITMAP
2400
7E00
1C00
0800
0000
FF80
FF80
C000
C000
C000
FF00
FF00
C000
C000
C000
C000
FF80
FF80
ENDCHAR
STARTCHAR 011B
ENCODING 283
SWIDTH 578 0
DWIDTH 11 0
BBX 9 15 1 0
BITMAP
2200
3700
1C00
0800
0000
7F00
FF80
E380
E380
FF80
FF80
E000
E000
FF00
7F00
ENDCHAR
STARTCHAR 011E
ENCODING 286
SWIDTH 684 0
DWIDTH 13 0
BBX 11 17 1 0
BITMAP
1100
1F00
1F00
0000
3FC0
7FC0
E000
E000
E000
E7E0
E7E0
E0E0
E0E0
E0E0
E0E0
7FE0
3FE0
ENDCHAR
STARTCHAR 011F
ENCODING 287
SWIDTH 578 0
DWIDTH 11 0
BBX 9 18 1 -4
BITMAP
2200
3E00
3E00
0000
7F80
FF80
E380
E380
E380
E380
E380
E380
FF80
7F80
0380
0380
7F00
7F00
ENDCHAR
STARTCHAR 0122
ENCODING 290
SWIDTH 684 0
DWIDTH 13 0
BBX 11 17 1 -4
BITMAP
3FC0
7FC0
E000
E000
E000
E7E0
E7E0
E0E0
E0E0
E0E0
E0E0
7FE0
3FE0
0000
0E00
0C00
0C00
ENDCHAR
STARTCHAR 0123
ENCODING 291
SWIDTH 578 0
DWIDTH 11 0
BBX 9 18 1 -4
BITMAP
0C00
0C00
1C00
0000
7F80
FF80
E380
E380
E380
E380
E380
E380
FF80
7F80
0380
0380
7F00
7F00
ENDCHAR
STARTCHAR 012A
ENCODING 298
SWIDTH 315 0
DWIDTH 6 0
BBX 6 16 0 0
BITMAP
FC
FC
00
30
30
30
30
30
30
30
30
30
30
30
30
30
ENDCHAR
STARTCHAR 012B
ENCODING 299
SWIDTH 263 0
DWIDTH 5 0
BBX 5 14 0 0
BITMAP
F8
F8
00
00
70
70
70
70
70
70
70
70
70
70
ENDCHAR
STARTCHAR 012E
ENCODING 302
SWIDTH 315 0
DWIDTH 6 0
BBX 4 17 0 -4
BITMAP
30
30
30
30
30
30
30
30
30
30
30
70
70
C0
C0
70
70
ENDCHAR
STARTCHAR 012F
ENCODING 303
SWIDTH 263 0
DWIDTH 5 0
BBX 4 19 0 -4
BITMAP
70
70
70
00
00
70
70
70
70
70
70
70
70
70
F0
C0
C0
F0
70
ENDCHAR
STARTCHAR 0130
ENCODING 304
SWIDTH 315 0
DWIDTH 6 0
BBX 2 17 2 0
BITMAP
C0
C0
C0
00
C0
C0
C0
C0
C0
C0
C0
C0
C0
C0
C0
C0
C0
ENDCHAR
STARTCHAR 0131
ENCODING 305
SWIDTH 263 0
DWIDTH 5 0
BBX 3 10 1 0
BITMAP
E0
E0
E0
E0
E0
E0
E0
E0
E0
E0
ENDCHAR
STARTCHAR 0136
ENCODING 310
SWIDTH 684 0
DWIDTH 13 0
BBX 10 17 2 -4
BITMAP
C3C0
C380
C700
CE00
DC00
FC00
FC00
EE00
EF00
C700
C380
C3C0
C1C0
0000
1C00
1800
1800
ENDCHAR
STARTCHAR 0137
ENCODING 311
SWIDTH 578 0
DWIDTH 11 0
BBX 10 18 1 -4
BITMAP
E000
E000
E000
E000
E380
E700
EE00
FC00
FC00
FE00
FE00
E700
E380
E3C0
0000
1C00
1800
1800
ENDCHAR
STARTCHAR 0139
ENCODING 313
SWIDTH 526 0
DWIDTH 10 0
BBX 8 18 2 0
BITMAP
20
70
C0
80
00
C0
C0
C0
C0
C0
C0
C0
C0
C0
C0
C0
FF
FF
ENDCHAR
STARTCHAR 013A
ENCODING 314
SWIDTH 315 0
DWIDTH 6 0
BBX 4 19 1 0
BITMAP
20
70
E0
40
00
E0
E0
E0
E0
E0
E0
E0
E0
E0
E0
E0
E0
70
30
ENDCHAR
STARTCHAR 013B
ENCODING 315
SWIDTH 526 0
DWIDTH 10 0
BBX 8 17 2 -4
BITMAP
C0
C0
C0
C0
C0
C0
C0
C0
C0
C0
C0
FF
FF
00
18
30
30
ENDCHAR
STARTCHAR 013C
ENCODING 316
SWIDTH 315 0
DWIDTH 6 0
BBX 4 18 1 -4
BITMAP
E0
E0
E0
E0
E0
E0
E0
E0
E0
E0
E0
E0
70
30
00
70
60
60
ENDCHAR
STARTCHAR 013D
ENCODING 317
SWIDTH 526 0
DWIDTH 10 0
BBX 8 14 2 0
BITMAP
06
CC
CC
CC
C0
C0
C0
C0
C0
C0
C0
C0
FF
FF
ENDCHAR
STARTCHAR 013E
ENCODING 318
SWIDTH 368 0
DWIDTH 7 0
BBX 7 15 1 0
BITMAP
0E
EC
EC
EC
E0
E0
E0
E0
E0
E0
E0
E0
E0
70
30
ENDCHAR
STARTCHAR 0141
ENCODING 321
SWIDTH 578 0
DWIDTH 11 0
BBX 11 13 0 0
BITMAP
3800
3800
3800
3A00
3F00
3F00
3C00
F800
7800
3800
3800
3FE0
3FE0
ENDCHAR
STARTCHAR 0142
ENCODING 322
SWIDTH 315 0
DWIDTH 6 0
BBX 6 14 0 0
BITMAP
30
30
30
30
34
3C
78
F0
70
30
30
38
38
18
ENDCHAR
STARTCHAR 0143
ENCODING 323
SWIDTH 736 0
DWIDTH 14 0
BBX 10 18 2 0
BITMAP
0200
0700
1C00
0800
0000
E0C0
E0C0
F0C0
F8C0
F8C0
DCC0
CCC0
CEC0
C7C0
C7C0
C3C0
C1C0
C1C0
ENDCHAR
STARTCHAR 0144
ENCODING 324
SWIDTH 578 0
DWIDTH 11 0
BBX 9 15 1 0
BITMAP
0400
0E00
1C00
0800
0000
FF00
FF80
E380
E380
E380
E380
E380
E380
E380
E380
ENDCHAR
STARTCHAR 0145
ENCODING 325
SWIDTH 736 0
DWIDTH 14 0
BBX 10 17 2 -4
BITMAP
E0C0
E0C0
F0C0
F8C0
F8C0
DCC0
CCC0
CEC0
C7C0
C7C0
C3C0
C1C0
C1C0
0000
0C00
1C00
1800
ENDCHAR
STARTCHAR 0146
ENCODING 326
SWIDTH 578 0
DWIDTH 11 0
BBX 9 14 1 -4
BITMAP
FF00
FF80
E380
E380
E380
E380
E380
E380
E380
E380
0000
1C00
1800
1800
ENDCHAR
STARTCHAR 0147
ENCODING 327
SWIDTH 736 0
DWIDTH 14 0
BBX 10 18 2 0
BITMAP
1200
3F00
0E00
0400
0000
E0C0
E0C0
F0C0
F8C0
F8C0
DCC0
CCC0
CEC0
C7C0
C7C0
C3C0
C1C0
C1C0
ENDCHAR
STARTCHAR 0148
ENCODING 328
SWIDTH 578 0
DWIDTH 11 0
BBX 9 15 1 0
BITMAP
2200
3700
1C00
0800
0000
FF00
FF80
E380
E380
E380
E380
E380
E380
E380
E380
ENDCHAR
STARTCHAR 014C
ENCODING 332
SWIDTH 684 0
DWIDTH 13 0
BBX 11 16 1 0
BITMAP
1F80
1F80
0000
3FC0
7FE0
E0E0
E0E0
E0E0
E0E0
E0E0
E0E0
E0E0
E0E0
E0E0
7FE0
3FC0
ENDCHAR
STARTCHAR 014D
ENCODING 333
SWIDTH 578 0
DWIDTH 11 0
BBX 9 14 1 0
BITMAP
3E00
3E00
0000
0000
7F00
FF80
E380
E380
E380
E380
E380
E380
FF80
7F00
ENDCHAR
STARTCHAR 0150
ENCODING 336
SWIDTH 684 0
DWIDTH 13 0
BBX 11 18 1 0
BITMAP
0C80
0DC0
1B80
1100
0000
3FC0
7FE0
E0E0
E0E0
E0E0
E0E0
E0E0
E0E0
E0E0
E0E0
E0E0
7FE0
3FC0
ENDCHAR
STARTCHAR 0151
ENCODING 337
SWIDTH 578 0
DWIDTH 11 0
BBX 9 15 1 0
BITMAP
1100
1B80
3700
2200
0000
7F00
FF80
E380
E380
E380
E380
E380
E380
FF80
7F00
ENDCHAR
STARTCHAR 0152
ENCODING 338
SWIDTH 1000 0
DWIDTH 19 0
BBX 17 13 1 0
BITMAP
3FFF80
7FFF80
E0E000
E0E000
E0E000
E0FF00
E0FF00
E0E000
E0E000
E0E000
E0E000
7FFF80
3FFF80
ENDCHAR
STARTCHAR 0153
ENCODING 339
SWIDTH 894 0
DWIDTH 17 0
BBX 15 10 1 0
BITMAP
7EFC
FFFE
E38E
E38E
E3FE
E3FE
E380
E380
FFFE
7EFC
ENDCHAR
STARTCHAR 0154
ENCODING 340
SWIDTH 631 0
DWIDTH 12 0
BBX 10 18 2 0
BITMAP
0400
0E00
3800
1000
0000
FF00
FF80
C380
C380
C380
C380
FF80
FF80
C600
C700
C380
C380
C1C0
ENDCHAR
STARTCHAR 0155
ENCODING 341
SWIDTH 421 0
DWIDTH 8 0
BBX 6 15 1 0
BITMAP
08
1C
30
20
00
7C
FC
E0
E0
E0
E0
E0
E0
E0
E0
ENDCHAR
STARTCHAR 0156
ENCODING 342
SWIDTH 631 0
DWIDTH 12 0
BBX 10 17 2 -4
BITMAP
FF00
FF80
C380
C380
C380
C380
FF80
FF80
C600
C700
C380
C380
C1C0
0000
1800
1800
3000
ENDCHAR
STARTCHAR 0157
ENCODING 343
SWIDTH 421 0
DWIDTH 8 0
BBX 6 14 1 -4
BITMAP
7C
FC
E0
E0
E0
E0
E0
E0
E0
E0
00
C0
C0
C0
ENDCHAR
STARTCHAR 0158
ENCODING 344
SWIDTH 631 0
DWIDTH 12 0
BBX 10 18 2 0
BITMAP
2400
7E00
1C00
0800
0000
FF00
FF80
C380
C380
C380
C380
FF80
FF80
C600
C700
C380
C380
C1C0
ENDCHAR
STARTCHAR 0159
ENCODING 345
SWIDTH 421 0
DWIDTH 8 0
BBX 6 15 1 0
BITMAP
44
FC
38
10
00
7C
FC
E0
E0
E0
E0
E0
E0
E0
E0
ENDCHAR
STARTCHAR 015A
ENCODING 346
SWIDTH 578 0
DWIDTH 11 0
BBX 9 18 1 0
BITMAP
0400
0E00
1C00
0800
0000
7F00
FF80
E000
E000
E000
FC00
7F80
1F80
0380
0380
0380
FF80
7F00
ENDCHAR
STARTCHAR 015B
ENCODING 347
SWIDTH 526 0
DWIDTH 10 0
BBX 8 15 1 0
BITMAP
08
1C
38
10
00
7E
FE
E0
E0
FC
7E
07
07
FE
7E
ENDCHAR
STARTCHAR 015E
ENCODING 350
SWIDTH 578 0
DWIDTH 11 0
BBX 9 17 1 -4
BITMAP
7F00
FF80
E000
E000
E000
FC00
7F80
1F80
0380
0380
0380
FF80
7F00
0600
0600
3C00
1C00
ENDCHAR
STARTCHAR 015F
ENCODING 351
SWIDTH 526 0
DWIDTH 10 0
BBX 8 14 1 -4
BITMAP
7E
FE
E0
E0
FC
7E
07
07
FE
7E
0C
0C
3C
38
ENDCHAR
STARTCHAR 0160
ENCODING 352
SWIDTH 578 0
DWIDTH 11 0
BBX 9 18 1 0
BITMAP
2200
3700
1C00
0800
0000
7F00
FF80
E000
E000
E000
FC00
7F80
1F80
0380
0380
0380
FF80
7F00
ENDCHAR
STARTCHAR 0161
ENCODING 353
SWIDTH 526 0
DWIDTH 10 0
BBX 8 15 1 0
BITMAP
64
7E
38
10
00
7E
FE
E0
E0
FC
7E
07
07
FE
7E
ENDCHAR
STARTCHAR 0162
ENCODING 354
SWIDTH 631 0
DWIDTH 12 0
BBX 11 17 0 -4
BITMAP
FFE0
FFE0
0E00
0E00
0E00
0E00
0E00
0E00
0E00
0E00
0E00
0E00
0F00
0300
0300
0F00
0E00
ENDCHAR
STARTCHAR 0163
ENCODING 355
SWIDTH 421 0
DWIDTH 8 0
BBX 6 17 1 -4
BITMAP
E0
E0
E0
FC
FC
E0
E0
E0
E0
E0
E0
7C
7C
0C
0C
78
38
ENDCHAR
STARTCHAR 0164
ENCODING 356
SWIDTH 631 0
DWIDTH 12 0
BBX 11 18 0 0
BITMAP
1100
1F80
0E00
0400
0000
FFE0
FFE0
0E00
0E00
0E00
0E00
0E00
0E00
0E00
0E00
0E00
0E00
0E00
ENDCHAR
STARTCHAR 0165
ENCODING 357
SWIDTH 421 0
DWIDTH 8 0
BBX 7 15 1 0
BITMAP
0E
0C
EC
EC
E0
FC
FC
E0
E0
E0
E0
E0
E0
7C
7C
ENDCHAR
STARTCHAR 016A
ENCODING 362
SWIDTH 684 0
DWIDTH 13 0
BBX 11 16 1 0
BITMAP
1F00
1F00
0000
E0E0
E0E0
E0E0
E0E0
E0E0
E0E0
E0E0
E0E0
E0E0
E0E0
F0E0
7FC0
3FC0
ENDCHAR
STARTCHAR 016B
ENCODING 363
SWIDTH 578 0
DWIDTH 11 0
BBX 9 14 1 0
BITMAP
3E00
3E00
0000
0000
E380
E380
E380
E380
E380
E380
E380
E380
7F80
7F80
ENDCHAR
STARTCHAR 016E
ENCODING 366
SWIDTH 684 0
DWIDTH 13 0
BBX 11 18 1 0
BITMAP
0F00
1B00
1B00
0F00
0000
E0E0
E0E0
E0E0
E0E0
E0E0
E0E0
E0E0
E0E0
E0E0
E0E0
F0E0
7FC0
3FC0
ENDCHAR
STARTCHAR 016F
ENCODING 367
SWIDTH 578 0
DWIDTH 11 0
BBX 9 15 1 0
BITMAP
1E00
3600
3600
1E00
0000
E380
E380
E380
E380
E380
E380
E380
E380
7F80
7F80
ENDCHAR
STARTCHAR 0170
ENCODING 368
SWIDTH 684 0
DWIDTH 13 0
BBX 11 18 1 0
BITMAP
0880
0DC0
1B80
3100
0000
E0E0
E0E0
E0E0
E0E0
E0E0
E0E0
E0E0
E0E0
E0E0
E0E0
F0E0
7FC0
3FC0
ENDCHAR
STARTCHAR 0171
ENCODING 369
SWIDTH 578 0
DWIDTH 11 0
BBX 9 15 1 0
BITMAP
1100
1B80
3700
6200
0000
E380
E380
E380
E380
E380
E380
E380
E380
7F80
7F80
ENDCHAR
STARTCHAR 0172
ENCODING 370
SWIDTH 684 0
DWIDTH 13 0
BBX 11 17 1 -4
BITMAP
E0E0
E0E0
E0E0
E0E0
E0E0
E0E0
E0E0
E0E0
E0E0
E0E0
F0E0
7FC0
3FC0
0600
0600
0780
0300
ENDCHAR
STARTCHAR 0173
ENCODING 371
SWIDTH 578 0
DWIDTH 11 0
BBX 9 14 1 -4
BITMAP
E380
E380
E380
E380
E380
E380
E380
E380
7F80
7F80
0600
0600
0780
0300
ENDCHAR
STARTCHAR 0178
ENCODING 376
SWIDTH 631 0
DWIDTH 12 0
BBX 11 17 0 0
BITMAP
1980
1980
1980
0000
E0E0
70E0
71C0
39C0
3B80
1F80
1F00
0F00
0E00
0E00
0E00
0E00
0E00
ENDCHAR
STARTCHAR 0179
ENCODING 377
SWIDTH 631 0
DWIDTH 12 0
BBX 10 18 1 0
BITMAP
0400
0E00
1C00
0800
0000
FFC0
FFC0
0380
0780
0700
0E00
1C00
3C00
3800
7000
E000
FFC0
FFC0
ENDCHAR
STARTCHAR 017A
ENCODING 378
SWIDTH 526 0
DWIDTH 10 0
BBX 8 15 1 0
BITMAP
08
0C
38
10
00
FF
FF
0E
1E
1C
38
70
E0
FF
FF
ENDCHAR
STARTCHAR 017B
ENCODING 379
SWIDTH 631 0
DWIDTH 12 0
BBX 10 17 1 0
BITMAP
1C00
1C00
1C00
0000
FFC0
FFC0
0380
0780
0700
0E00
1C00
3C00
3800
7000
E000
FFC0
FFC0
ENDCHAR
STARTCHAR 017C
ENCODING 380
SWIDTH 526 0
DWIDTH 10 0
BBX 8 15 1 0
BITMAP
18
18
18
00
00
FF
FF
0E
1E
1C
38
70
E0
FF
FF
ENDCHAR
STARTCHAR 017D
ENCODING 381
SWIDTH 631 0
DWIDTH 12 0
BBX 10 18 1 0
BITMAP
2200
3F00
1C00
0800
0000
FFC0
FFC0
0380
0780
0700
0E00
1C00
3C00
3800
7000
E000
FFC0
FFC0
ENDCHAR
STARTCHAR 017E
ENCODING 382
SWIDTH 526 0
DWIDTH 10 0
BBX 8 15 1 0
BITMAP
24
7E
38
10
00
FF
FF
0E
1E
1C
38
70
E0
FF
FF
ENDCHAR
STARTCHAR 0192
ENCODING 402
SWIDTH 578 0
DWIDTH 11 0
BBX 9 17 1 -3
BITMAP
0F00
1F80
3800
3800
3F00
3F00
3800
3800
3800
3800
3800
3800
3800
3800
3800
F800
F000
ENDCHAR
STARTCHAR 0218
ENCODING 536
SWIDTH 578 0
DWIDTH 11 0
BBX 9 17 1 -4
BITMAP
7F00
FF80
E000
E000
E000
FC00
7F80
1F80
0380
0380
0380
FF80
7F00
0000
1C00
1800
1800
ENDCHAR
STARTCHAR 0219
ENCODING 537
SWIDTH 526 0
DWIDTH 10 0
BBX 8 14 1 -4
BITMAP
7E
FE
E0
E0
FC
7E
07
07
FE
7E
00
18
38
30
ENDCHAR
STARTCHAR 021A
ENCODING 538
SWIDTH 631 0
DWIDTH 12 0
BBX 11 17 0 -4
BITMAP
FFE0
FFE0
0E00
0E00
0E00
0E00
0E00
0E00
0E00
0E00
0E00
0E00
0E00
0000
0600
0E00
0C00
ENDCHAR
STARTCHAR 021B
ENCODING 539
SWIDTH 421 0
DWIDTH 8 0
BBX 6 17 1 -4
BITMAP
E0
E0
E0
FC
FC
E0
E0
E0
E0
E0
E0
7C
7C
00
38
30
30
ENDCHAR
STARTCHAR 0237
ENCODING 567
SWIDTH 263 0
DWIDTH 5 0
BBX 4 14 0 -4
BITMAP
70
70
70
70
70
70
70
70
70
70
70
70
E0
C0
ENDCHAR
STARTCHAR 02C6
ENCODING 710
SWIDTH 526 0
DWIDTH 10 0
BBX 6 4 2 11
BITMAP
20
70
FC
88
ENDCHAR
STARTCHAR 02C7
ENCODING 711
SWIDTH 526 0
DWIDTH 10 0
BBX 6 4 2 11
BITMAP
88
FC
70
20
ENDCHAR
STARTCHAR 02C9
ENCODING 713
SWIDTH 526 0
DWIDTH 10 0
BBX 6 2 2 12
BITMAP
FC
FC
ENDCHAR
STARTCHAR 02D8
ENCODING 728
SWIDTH 526 0
DWIDTH 10 0
BBX 5 3 2 11
BITMAP
C8
F8
F8
ENDCHAR
STARTCHAR 02D9
ENCODING 729
SWIDTH 526 0
DWIDTH 10 0
BBX 3 3 3 12
BITMAP
E0
E0
E0
ENDCHAR
STARTCHAR 02DA
ENCODING 730
SWIDTH 526 0
DWIDTH 10 0
BBX 4 4 3 11
BITMAP
F0
B0
B0
F0
ENDCHAR
STARTCHAR 02DB
ENCODING 731
SWIDTH 526 0
DWIDTH 10 0
BBX 4 6 3 -4
BITMAP
60
E0
C0
C0
F0
70
ENDCHAR
STARTCHAR 02DC
ENCODING 732
SWIDTH 526 0
DWIDTH 10 0
BBX 7 3 1 11
BITMAP
34
FE
4C
ENDCHAR
STARTCHAR 02DD
ENCODING 733
SWIDTH 526 0
DWIDTH 10 0
BBX 7 4 2 11
BITMAP
64
6E
DC
88
ENDCHAR
STARTCHAR 0300
ENCODING 768
SWIDTH 0 0
DWIDTH 0 0
BBX 4 4 -8 11
BITMAP
40
E0
70
20
ENDCHAR
STARTCHAR 0301
ENCODING 769
SWIDTH 0 0
DWIDTH 0 0
BBX 4 4 -7 11
BITMAP
20
70
E0
40
ENDCHAR
STARTCHAR 0302
ENCODING 770
SWIDTH 0 0
DWIDTH 0 0
BBX 6 4 -9 11
BITMAP
10
38
EC
44
ENDCHAR
STARTCHAR 0303
ENCODING 771
SWIDTH 0 0
DWIDTH 0 0
BBX 7 3 -9 11
BITMAP
74
FE
5C
ENDCHAR
STARTCHAR 0304
ENCODING 772
SWIDTH 0 0
DWIDTH 0 0
BBX 5 2 -8 12
BITMAP
F8
F8
ENDCHAR
STARTCHAR 0306
ENCODING 774
SWIDTH 0 0
DWIDTH 0 0
BBX 5 3 -8 11
BITMAP
88
F8
F8
ENDCHAR
STARTCHAR 0307
ENCODING 775
SWIDTH 0 0
DWIDTH 0 0
BBX 3 3 -7 12
BITMAP
E0
E0
E0
ENDCHAR
STARTCHAR 0308
ENCODING 776
SWIDTH 0 0
DWIDTH 0 0
BBX 7 3 -9 11
BITMAP
EE
EE
EE
ENDCHAR
STARTCHAR 030A
ENCODING 778
SWIDTH 0 0
DWIDTH 0 0
BBX 5 4 -8 11
BITMAP
70
D8
D8
70
ENDCHAR
STARTCHAR 030B
ENCODING 779
SWIDTH 0 0
DWIDTH 0 0
BBX 8 4 -9 11
BITMAP
22
77
EC
44
ENDCHAR
STARTCHAR 030C
ENCODING 780
SWIDTH 0 0
DWIDTH 0 0
BBX 6 4 -9 11
BITMAP
44
EC
38
10
ENDCHAR
STARTCHAR 0326
ENCODING 806
SWIDTH 0 0
DWIDTH 0 0
BBX 3 3 -7 -4
BITMAP
E0
C0
C0
ENDCHAR
STARTCHAR 0327
ENCODING 807
SWIDTH 0 0
DWIDTH 0 0
BBX 5 5 -8 -4
BITMAP
18
18
18
F0
70
ENDCHAR
STARTCHAR 0328
ENCODING 808
SWIDTH 0 0
DWIDTH 0 0
BBX 4 6 -7 -4
BITMAP
40
C0
C0
C0
F0
60
ENDCHAR
STARTCHAR 03C0
ENCODING 960
SWIDTH 578 0
DWIDTH 11 0
BBX 9 10 1 0
BITMAP
FF80
FF80
E380
E380
E380
E380
E380
E380
E380
E380
ENDCHAR
STARTCHAR 1E9E
ENCODING 7838
SWIDTH 684 0
DWIDTH 13 0
BBX 11 13 1 0
BITMAP
3FC0
7FC0
F1C0
E380
E700
E7C0
E7E0
E0E0
E060
E060
E0E0
EFE0
E7C0
ENDCHAR
STARTCHAR 2013
ENCODING 8211
SWIDTH 578 0
DWIDTH 11 0
BBX 9 2 1 5
BITMAP
FF80
FF80
ENDCHAR
STARTCHAR 2014
ENCODING 8212
SWIDTH 1000 0
DWIDTH 19 0
BBX 17 2 1 5
BITMAP
FFFF80
FFFF80
ENDCHAR
STARTCHAR 2018
ENCODING 8216
SWIDTH 263 0
DWIDTH 5 0
BBX 4 6 1 8
BITMAP
70
60
60
E0
E0
C0
ENDCHAR
STARTCHAR 2019
ENCODING 8217
SWIDTH 263 0
DWIDTH 5 0
BBX 4 6 1 8
BITMAP
70
60
E0
C0
C0
C0
ENDCHAR
STARTCHAR 201A
ENCODING 8218
SWIDTH 263 0
DWIDTH 5 0
BBX 4 6 0 -3
BITMAP
30
70
70
60
60
E0
ENDCHAR
STARTCHAR 201C
ENCODING 8220
SWIDTH 473 0
DWIDTH 9 0
BBX 8 6 1 8
BITMAP
73
67
66
E6
EE
CE
ENDCHAR
STARTCHAR 201D
ENCODING 8221
SWIDTH 473 0
DWIDTH 9 0
BBX 8 6 1 8
BITMAP
77
66
E6
CE
CC
CC
ENDCHAR
STARTCHAR 201E
ENCODING 8222
SWIDTH 473 0
DWIDTH 9 0
BBX 9 6 0 -3
BITMAP
3380
7300
7700
6600
6600
E600
ENDCHAR
STARTCHAR 2020
ENCODING 8224
SWIDTH 473 0
DWIDTH 9 0
BBX 8 15 1 -2
BITMAP
18
18
18
FF
FF
18
18
18
18
18
18
18
18
18
18
ENDCHAR
STARTCHAR 2021
ENCODING 8225
SWIDTH 473 0
DWIDTH 9 0
BBX 8 15 1 -2
BITMAP
18
18
18
FF
FF
18
18
18
18
18
FF
FF
18
18
18
ENDCHAR
STARTCHAR 2022
ENCODING 8226
SWIDTH 368 0
DWIDTH 7 0
BBX 5 5 1 5
BITMAP
F8
F8
F8
F8
F8
ENDCHAR
STARTCHAR 2026
ENCODING 8230
SWIDTH 842 0
DWIDTH 16 0
BBX 14 3 1 0
BITMAP
E31C
E31C
E31C
ENDCHAR
STARTCHAR 2030
ENCODING 8240
SWIDTH 1263 0
DWIDTH 24 0
BBX 22 13 1 0
BITMAP
F86000
F86000
D8E000
D8C000
D9C000
D9BC78
FBBEFC
FB76CC
0776CC
0676CC
0C76CC
1C3EFC
083C78
ENDCHAR
STARTCHAR 2039
ENCODING 8249
SWIDTH 368 0
DWIDTH 7 0
BBX 5 9 1 1
BITMAP
10
38
70
E0
C0
E0
70
38
10
ENDCHAR
STARTCHAR 203A
ENCODING 8250
SWIDTH 368 0
DWIDTH 7 0
BBX 5 9 1 1
BITMAP
40
E0
60
70
38
70
60
E0
40
ENDCHAR
STARTCHAR 2044
ENCODING 8260
SWIDTH 157 0
DWIDTH 3 0
BBX 9 13 -3 0
BITMAP
0380
0300
0700
0600
0E00
0C00
1C00
1800
3800
3000
7000
E000
4000
ENDCHAR
STARTCHAR 2070
ENCODING 8304
SWIDTH 368 0
DWIDTH 7 0
BBX 5 8 1 5
BITMAP
F8
F8
D8
D8
D8
D8
F8
F8
ENDCHAR
STARTCHAR 2074
ENCODING 8308
SWIDTH 368 0
DWIDTH 7 0
BBX 5 8 1 5
BITMAP
70
60
60
F8
D8
F8
F8
18
ENDCHAR
STARTCHAR 2080
ENCODING 8320
SWIDTH 368 0
DWIDTH 7 0
BBX 5 8 1 0
BITMAP
F8
F8
D8
D8
D8
D8
F8
F8
ENDCHAR
STARTCHAR 2081
ENCODING 8321
SWIDTH 368 0
DWIDTH 7 0
BBX 5 8 1 0
BITMAP
70
F0
30
30
30
30
F8
F8
ENDCHAR
STARTCHAR 2082
ENCODING 8322
SWIDTH 368 0
DWIDTH 7 0
BBX 5 8 1 0
BITMAP
F8
F8
18
78
F0
C0
F8
F8
ENDCHAR
STARTCHAR 2083
ENCODING 8323
SWIDTH 368 0
DWIDTH 7 0
BBX 5 8 1 0
BITMAP
F8
F8
18
78
78
18
F8
F8
ENDCHAR
STARTCHAR 2084
ENCODING 8324
SWIDTH 368 0
DWIDTH 7 0
BBX 5 8 1 0
BITMAP
70
60
60
F8
D8
F8
F8
18
ENDCHAR
STARTCHAR 20AC
ENCODING 8364
SWIDTH 578 0
DWIDTH 11 0
BBX 10 13 0 0
BITMAP
1FC0
3FC0
3800
3000
FF80
FF80
3000
FF00
FF00
3000
3800
3FC0
1FC0
ENDCHAR
STARTCHAR 20BA
ENCODING 8378
SWIDTH 578 0
DWIDTH 11 0
BBX 10 13 0 0
BITMAP
3800
3900
3F00
3E00
F900
7F00
3C00
F8C0
78C0
39C0
3BC0
3F80
3F00
ENDCHAR
STARTCHAR 20BD
ENCODING 8381
SWIDTH 578 0
DWIDTH 11 0
BBX 9 13 1 0
BITMAP
7F00
7F80
6380
6380
6380
6380
FF80
FF00
6000
FE00
FE00
6000
6000
ENDCHAR
STARTCHAR 2113
ENCODING 8467
SWIDTH 315 0
DWIDTH 6 0
BBX 4 14 1 0
BITMAP
E0
E0
E0
E0
E0
E0
E0
E0
E0
E0
E0
E0
70
30
ENDCHAR
STARTCHAR 2122
ENCODING 8482
SWIDTH 789 0
DWIDTH 15 0
BBX 14 7 0 6
BITMAP
FD8C
FD9C
31DC
31FC
317C
316C
310C
ENDCHAR
STARTCHAR 2126
ENCODING 8486
SWIDTH 684 0
DWIDTH 13 0
BBX 11 13 1 0
BITMAP
3FC0
7FE0
E0E0
E0E0
E0E0
E0E0
E0E0
E0E0
E0E0
70E0
79C0
F9E0
F9E0
ENDCHAR
STARTCHAR 212E
ENCODING 8494
SWIDTH 894 0
DWIDTH 17 0
BBX 15 13 1 0
BITMAP
0FC0
1030
2008
600C
E00C
E00C
FFFE
E000
E000
6000
2008
1030
0FC0
ENDCHAR
STARTCHAR 2202
ENCODING 8706
SWIDTH 578 0
DWIDTH 11 0
BBX 9 14 1 0
BITMAP
3E00
7F00
0700
0380
0380
7F80
FF80
E380
E380
E380
E380
E380
FF80
7F00
ENDCHAR
STARTCHAR 2206
ENCODING 8710
SWIDTH 684 0
DWIDTH 13 0
BBX 13 13 0 0
BITMAP
0F80
0F80
1D80
1DC0
1DC0
18C0
38E0
38E0
3060
7070
7070
7FF0
FFF8
ENDCHAR
STARTCHAR 220F
ENCODING 8719
SWIDTH 684 0
DWIDTH 13 0
BBX 10 15 2 -2
BITMAP
FFC0
FFC0
C1C0
C1C0
C1C0
C1C0
C1C0
C1C0
C1C0
C1C0
C1C0
C1C0
C1C0
C1C0
C1C0
ENDCHAR
STARTCHAR 2211
ENCODING 8721
SWIDTH 578 0
DWIDTH 11 0
BBX 9 15 1 -2
BITMAP
FF80
FF80
E000
7000
3800
3800
1C00
0E00
1C00
3800
3800
7000
E000
FF80
FF80
ENDCHAR
STARTCHAR 2212
ENCODING 8722
SWIDTH 578 0
DWIDTH 11 0
BBX 9 2 1 6
BITMAP
FF80
FF80
ENDCHAR
STARTCHAR 2215
ENCODING 8725
SWIDTH 157 0
DWIDTH 3 0
BBX 9 13 -3 0
BITMAP
0380
0300
0700
0600
0E00
0C00
1C00
1800
3800
3000
7000
E000
4000
ENDCHAR
STARTCHAR 2219
ENCODING 8729
SWIDTH 263 0
DWIDTH 5 0
BBX 3 3 1 5
BITMAP
E0
E0
E0
ENDCHAR
STARTCHAR 221A
ENCODING 8730
SWIDTH 631 0
DWIDTH 12 0
BBX 12 15 0 0
BITMAP
0070
0060
0060
00E0
00C0
00C0
01C0
F180
F180
3B00
1B00
1B00
1E00
0E00
0E00
ENDCHAR
STARTCHAR 221E
ENCODING 8734
SWIDTH 631 0
DWIDTH 12 0
BBX 10 6 1 3
BITMAP
FF80
FFC0
CCC0
CCC0
FFC0
FF80
ENDCHAR
STARTCHAR 222B
ENCODING 8747
SWIDTH 473 0
DWIDTH 9 0
BBX 9 18 0 -4
BITMAP
0F00
0F80
1C00
1C00
1C00
1C00
1C00
1C00
1C00
1C00
1C00
1C00
1C00
1C00
1C00
1C00
FC00
7800
ENDCHAR
STARTCHAR 2248
ENCODING 8776
SWIDTH 578 0
DWIDTH 11 0
BBX 9 9 1 2
BITMAP
3100
7980
FF80
CF00
7700
7980
FF80
CF00
4600
ENDCHAR
STARTCHAR 2260
ENCODING 8800
SWIDTH 578 0
DWIDTH 11 0
BBX 9 10 1 1
BITMAP
0200
0700
FF80
FF80
0C00
1800
FF80
FF80
3000
6000
ENDCHAR
STARTCHAR 2264
ENCODING 8804
SWIDTH 578 0
DWIDTH 11 0
BBX 9 12 1 0
BITMAP
0300
0F80
3E00
F800
E000
F800
3E00
0F80
0300
0000
FF80
FF80
ENDCHAR
STARTCHAR 2265
ENCODING 8805
SWIDTH 578 0
DWIDTH 11 0
BBX 9 12 1 0
BITMAP
6000
F800
3E00
0F80
0380
0F80
3E00
F800
6000
0000
FF80
FF80
ENDCHAR
STARTCHAR 25CA
ENCODING 9674
SWIDTH 578 0
DWIDTH 11 0
BBX 9 13 1 0
BITMAP
1C00
3E00
3600
7700
6300
C380
C180
C380
6300
7700
3600
3E00
1C00
ENDCHAR
STARTCHAR F000
ENCODING 61440
SWIDTH 684 0
DWIDTH 13 0
BBX 11 10 1 2
BITMAP
0400
0600
0E00
0F00
1F00
1F80
3F80
7FC0
7FC0
FFE0
ENDCHAR
STARTCHAR FB01
ENCODING 64257
SWIDTH 684 0
DWIDTH 13 0
BBX 11 15 1 0
BITMAP
00E0
7CE0
7CE0
E000
E000
FCE0
FCE0
E0E0
E0E0
E0E0
E0E0
E0E0
E0E0
E0E0
E0E0
ENDCHAR
STARTCHAR FB02
ENCODING 64258
SWIDTH 736 0
DWIDTH 14 0
BBX 12 14 1 0
BITMAP
7CE0
7CE0
E0E0
E0E0
FCE0
FCE0
E0E0
E0E0
E0E0
E0E0
E0E0
E0E0
E070
E030
ENDCHAR
ENDFONT
